# xmcd
#
# Track frame offsets:
#	150
#	15695
#	33430
#	42235
#	55597
#	70307
#	83855
#	97645
#	115355
#	126960
#	141670
#	153787
#	169670
#	183547
#	194232
#
# Disc length: 2757 seconds
#
# Revision: 0
# Processed by: cddbd v1.5.2PL0 Copyright (c) Steve Scherf et al.
# Submitted via: EasyCDDAExtractor 10.0.6.1
#
DISCID=cf0ac30f
DTITLE=Paul Hopkins - Something Old, Nothing New
DYEAR=1900
DGENRE=
TTITLE0=Under The Double Eagle
TTITLE1=Old Kentucky Home
TTITLE2=Wildwood Flower
TTITLE3=Grandfathers Clock
TTITLE4=Buffalo Gals
TTITLE5=Rosewood Casket
TTITLE6=Ring, Ring, The Banjo
TTITLE7=Old Spinning Wheel
TTITLE8=Red Wing
TTITLE9=Beer Barrell Polka
TTITLE10=Soldiers Joy
TTITLE11=When You And I Were Young, Maggie
TTITLE12=When You're Smiling
TTITLE13=Red River Valley
TTITLE14=Home Sweet Home
EXTD=
EXTT0=
EXTT1=
EXTT2=
EXTT3=
EXTT4=
EXTT5=
EXTT6=
EXTT7=
EXTT8=
EXTT9=
EXTT10=
EXTT11=
EXTT12=
EXTT13=
EXTT14=
PLAYORDER=
